<svg xmlns="http://www.w3.org/2000/svg" viewBox="0 0 32 32" id="snacks">
  <path fill="#c8c5cc" d="M24 10h-1V2.96L25.97 0l.7.7L24 3.38V10z"></path>
  <path fill="#469ed6" d="m16.5 12.5.1 1 .32 3v.19L17.3 20l.1.95.16 1.51.1 1 .11 1L18 27l.1 1 .1 1 .06.53.2 1.95v.05h10l.21-2 1.68-16 .11-1Zm4.95 17h-1a3.07 3.07 0 0 0 .05-.5h1a3.07 3.07 0 0 1-.05.5Zm.05-7h-.82a2.77 2.77 0 0 1-.18-1 2.93 2.93 0 0 1 .65-1.85 5.16 5.16 0 0 1 .35 1.85Z"></path>
  <path fill="#227fc0" d="M29.5 12.5h-13l.1 1h12a.76.76 0 0 1 .75.83L27.71 29.5l-.21 2h1l.21-2 1.79-17Z"></path>
  <path fill="#c9de79" d="M15.5 10.5h16v2h-16z"></path>
  <path fill="#bcd44c" d="M30.5 10.5h1v2h-1z"></path>
  <path fill="#fee27d" d="M18.5 8.5h10v2h-10z"></path>
  <path fill="#fddd5a" d="M27.5 8.5h1v2h-1z"></path>
  <path fill="#c9de79" d="m28.71 29.5-.21 2h-10l-.01-.05-.2-1.95h10.42z"></path>
  <path fill="#bcd44c" d="m27.71 29.5-.21 2h1l.21-2h-1z"></path>
  <path fill="#fff" d="M26.5 21.5a3 3 0 0 1-3 3H23a2.68 2.68 0 0 1-.79-.24l-.35-.2v-.56h-.59a2.63 2.63 0 0 1-.58-1h.82v-1a5.16 5.16 0 0 0-.35-1.85 2.89 2.89 0 0 1 1.84-1.1h.5a3 3 0 0 1 3 2.95Z"></path>
  <path fill="#e1e1e3" d="M23.5 18.5a2.73 2.73 0 0 0-.5.05 3 3 0 0 1 0 5.9 2.73 2.73 0 0 0 .5.05 3 3 0 0 0 0-6Z"></path>
  <path fill="#227fc0" d="M21.5 29a3.07 3.07 0 0 1-.05.53h-1a3.07 3.07 0 0 0 .05-.53Z"></path>
  <path fill="#bcd44c" d="M21.45 29.5a2.56 2.56 0 0 1-.69 1.26 2.52 2.52 0 0 1-1.76.74H5A2.53 2.53 0 0 1 2.5 29h18a3.07 3.07 0 0 1-.05.53Z"></path>
  <path fill="#227fc0" d="M21.86 24.43V28H2.5v-3.5h19a.86.86 0 0 0 .36-.07Z"></path>
  <rect width="21" height="1.97" x="1.5" y="27" fill="#227fc0" rx=".98"></rect>
  <path fill="#e1e1e3" d="M21.86 23.5v.5a3.57 3.57 0 0 1-.38-.3 1 1 0 0 1-.21-.21Z"></path>
  <path fill="#227fc0" d="M21.86 24v.42a.86.86 0 0 1-.36.07h-19v-1h18.77a1 1 0 0 0 .21.21 3.57 3.57 0 0 0 .38.3Z"></path>
  <path fill="#469ed6" d="M22.21 24.21a1.15 1.15 0 0 1-.35.22V24Z"></path>
  <path fill="#e1e1e3" d="M22.5 23.5a1 1 0 0 1-.29.71l-.35-.2v-.51H2.5v1a1 1 0 0 1 0-2h19a1 1 0 0 1 1 1zm-1-2v1h-.82a2.77 2.77 0 0 1-.18-1 2.93 2.93 0 0 1 .65-1.85 5.16 5.16 0 0 1 .35 1.85z"></path>
  <path fill="#227fc0" d="M20.5 21.5a2.77 2.77 0 0 0 .18 1H2.5v-1a5 5 0 0 1 5-5h9.42a5 5 0 0 1 4.23 3.13 2.93 2.93 0 0 0-.65 1.87Z"></path>
  <path fill="#f9b15e" d="M6.5 16.5h9a5 5 0 0 1 5 5v1h-19v-1a5 5 0 0 1 5-5Z"></path>
  <path fill="#f9a242" d="M15.5 16.5h-1a5 5 0 0 1 5 5v1h1v-1a5 5 0 0 0-5-5Z"></path>
  <path fill="#7dc7a2" d="M1.5 23.5h19.36V28H1.5z"></path>
  <path fill="#56bc8d" d="M19.86 23.5h1V28h-1z"></path>
  <path fill="#f9b15e" d="M20.5 29a3.07 3.07 0 0 1-.05.53 2.6 2.6 0 0 1-.16.47 2.34 2.34 0 0 1-.53.79 2.52 2.52 0 0 1-1.27.69 3 3 0 0 1-.52.05H4A2.53 2.53 0 0 1 1.7 30a2.59 2.59 0 0 1-.2-1Z"></path>
  <path fill="#f9a242" d="M19.5 29a3.07 3.07 0 0 1-.05.53 2.56 2.56 0 0 1-.69 1.26 2.52 2.52 0 0 1-1.27.69 3 3 0 0 1-.52.05h1a3 3 0 0 0 .52-.05 2.52 2.52 0 0 0 1.27-.69 2.56 2.56 0 0 0 .69-1.26 3.07 3.07 0 0 0 .05-.53Z"></path>
  <path fill="#eb304a" d="M20.52 27h-1a1 1 0 0 1 0 2h1a1 1 0 0 0 0-2Z"></path>
  <path fill="#56bc8d" d="M20.86 23.57v1.86a.86.86 0 0 1-.36.07h-19v-2h19a.86.86 0 0 1 .36.07Z"></path>
  <rect width="21" height="2" x=".5" y="22.5" fill="#ed4769" rx="1"></rect>
  <path fill="#eb304a" d="M20.5 22.5h-1a1 1 0 0 1 0 2h1a1 1 0 0 0 0-2Z"></path>
  <circle cx="4.5" cy="19.5" r=".5" fill="#fee27d"></circle>
  <circle cx="7.5" cy="18.5" r=".5" fill="#fee27d"></circle>
  <circle cx="10.5" cy="19.5" r=".5" fill="#fee27d"></circle>
  <circle cx="15.5" cy="18.5" r=".5" fill="#fee27d"></circle>
  <circle cx="17.5" cy="20.5" r=".5" fill="#fee27d"></circle>
  <circle cx="14.5" cy="20.5" r=".5" fill="#fee27d"></circle>
  <circle cx="7.5" cy="20.5" r=".5" fill="#fee27d"></circle>
  <path fill="#f9a242" d="M20.5 29a3.07 3.07 0 0 1-.05.53 2.6 2.6 0 0 1-.16.47H1.7a2.59 2.59 0 0 1-.2-1Z"></path>
  <path fill="#ed4769" d="M20.52 27h-19a1 1 0 0 0-1 1 1 1 0 0 0 1 1h19a1 1 0 0 0 1-1 1 1 0 0 0-1-1Z"></path>
  <path fill="#eb304a" d="M20.52 27h-1a1 1 0 0 1 1 1 1 1 0 0 1-1 1h1a1 1 0 0 0 1-1 1 1 0 0 0-1-1ZM9.93 27l-1.6 1.97H5.67L4.07 27h5.86z"></path>
  <path fill="#fee27d" d="M9.12 27 7 29.61 4.88 27h4.24z"></path>
  <circle cx="4.5" cy="19.5" r=".5" fill="none"></circle>
  <circle cx="7.5" cy="18.5" r=".5" fill="none"></circle>
  <circle cx="10.5" cy="19.5" r=".5" fill="none"></circle>
  <circle cx="15.5" cy="18.5" r=".5" fill="none"></circle>
  <circle cx="17.5" cy="20.5" r=".5" fill="none"></circle>
  <circle cx="14.5" cy="20.5" r=".5" fill="none"></circle>
  <circle cx="7.5" cy="20.5" r=".5" fill="none"></circle>
</svg>
